<mxfile host="65bd71144e" pages="3">
    <diagram name="push-restore" id="Lvknjp_pkXbaQTpalk68">
        <mxGraphModel dx="875" dy="1474" grid="1" gridSize="10" guides="1" tooltips="1" connect="1" arrows="1" fold="1" page="0" pageScale="1" pageWidth="850" pageHeight="1100" math="0" shadow="0">
            <root>
                <mxCell id="0"/>
                <mxCell id="1" parent="0"/>
                <mxCell id="zeNmIrOmVtBTBZSd2-Td-1" style="edgeStyle=orthogonalEdgeStyle;rounded=0;orthogonalLoop=1;jettySize=auto;html=1;strokeWidth=1;fontSize=16;endArrow=classic;endFill=1;" parent="1" source="zeNmIrOmVtBTBZSd2-Td-3" target="zeNmIrOmVtBTBZSd2-Td-18" edge="1">
                    <mxGeometry relative="1" as="geometry"/>
                </mxCell>
                <mxCell id="zeNmIrOmVtBTBZSd2-Td-2" value="switch -c &quot;backup-$(date +%s)&quot;" style="edgeLabel;html=1;align=center;verticalAlign=middle;resizable=0;points=[];fontSize=16;" parent="zeNmIrOmVtBTBZSd2-Td-1" vertex="1" connectable="0">
                    <mxGeometry x="0.0111" relative="1" as="geometry">
                        <mxPoint as="offset"/>
                    </mxGeometry>
                </mxCell>
                <mxCell id="zeNmIrOmVtBTBZSd2-Td-3" value="Working on Local Machine" style="swimlane;whiteSpace=wrap;html=1;fontSize=16;startSize=20;" parent="1" vertex="1">
                    <mxGeometry x="23" y="-1060" width="277" height="210" as="geometry"/>
                </mxCell>
                <mxCell id="zeNmIrOmVtBTBZSd2-Td-4" value="A" style="rounded=0;whiteSpace=wrap;html=1;" parent="zeNmIrOmVtBTBZSd2-Td-3" vertex="1">
                    <mxGeometry x="20" y="150" width="40" height="40" as="geometry"/>
                </mxCell>
                <mxCell id="zeNmIrOmVtBTBZSd2-Td-5" value="B" style="rounded=0;whiteSpace=wrap;html=1;" parent="zeNmIrOmVtBTBZSd2-Td-3" vertex="1">
                    <mxGeometry x="80" y="150" width="40" height="40" as="geometry"/>
                </mxCell>
                <mxCell id="zeNmIrOmVtBTBZSd2-Td-6" style="edgeStyle=orthogonalEdgeStyle;rounded=0;orthogonalLoop=1;jettySize=auto;html=1;strokeWidth=1;fontSize=16;endArrow=classic;endFill=1;" parent="zeNmIrOmVtBTBZSd2-Td-3" source="zeNmIrOmVtBTBZSd2-Td-4" target="zeNmIrOmVtBTBZSd2-Td-5" edge="1">
                    <mxGeometry relative="1" as="geometry"/>
                </mxCell>
                <mxCell id="zeNmIrOmVtBTBZSd2-Td-7" value="C" style="rounded=0;whiteSpace=wrap;html=1;" parent="zeNmIrOmVtBTBZSd2-Td-3" vertex="1">
                    <mxGeometry x="140" y="150" width="40" height="40" as="geometry"/>
                </mxCell>
                <mxCell id="zeNmIrOmVtBTBZSd2-Td-8" style="edgeStyle=orthogonalEdgeStyle;rounded=0;orthogonalLoop=1;jettySize=auto;html=1;strokeWidth=1;fontSize=16;endArrow=classic;endFill=1;" parent="zeNmIrOmVtBTBZSd2-Td-3" source="zeNmIrOmVtBTBZSd2-Td-5" target="zeNmIrOmVtBTBZSd2-Td-7" edge="1">
                    <mxGeometry relative="1" as="geometry"/>
                </mxCell>
                <mxCell id="zeNmIrOmVtBTBZSd2-Td-9" value="issue" style="text;html=1;align=center;verticalAlign=middle;resizable=0;points=[];autosize=1;strokeColor=none;fillColor=none;fontSize=16;" parent="zeNmIrOmVtBTBZSd2-Td-3" vertex="1">
                    <mxGeometry x="130" y="95" width="60" height="30" as="geometry"/>
                </mxCell>
                <mxCell id="zeNmIrOmVtBTBZSd2-Td-10" style="edgeStyle=orthogonalEdgeStyle;rounded=0;orthogonalLoop=1;jettySize=auto;html=1;strokeWidth=1;fontSize=16;endArrow=classic;endFill=1;dashed=1;dashPattern=1 4;" parent="zeNmIrOmVtBTBZSd2-Td-3" source="zeNmIrOmVtBTBZSd2-Td-9" target="zeNmIrOmVtBTBZSd2-Td-7" edge="1">
                    <mxGeometry relative="1" as="geometry">
                        <Array as="points"/>
                    </mxGeometry>
                </mxCell>
                <mxCell id="zeNmIrOmVtBTBZSd2-Td-11" value="D" style="rounded=0;whiteSpace=wrap;html=1;fillColor=#a20025;fontColor=#ffffff;strokeColor=#6F0000;" parent="zeNmIrOmVtBTBZSd2-Td-3" vertex="1">
                    <mxGeometry x="217" y="150" width="40" height="40" as="geometry"/>
                </mxCell>
                <mxCell id="zeNmIrOmVtBTBZSd2-Td-12" value="HEAD" style="text;html=1;align=center;verticalAlign=middle;resizable=0;points=[];autosize=1;strokeColor=none;fillColor=none;fontSize=16;" parent="zeNmIrOmVtBTBZSd2-Td-3" vertex="1">
                    <mxGeometry x="125" y="40" width="70" height="30" as="geometry"/>
                </mxCell>
                <mxCell id="zeNmIrOmVtBTBZSd2-Td-13" style="edgeStyle=orthogonalEdgeStyle;rounded=0;orthogonalLoop=1;jettySize=auto;html=1;dashed=1;strokeWidth=1;fontSize=16;endArrow=classic;endFill=1;dashPattern=1 4;" parent="zeNmIrOmVtBTBZSd2-Td-3" source="zeNmIrOmVtBTBZSd2-Td-12" target="zeNmIrOmVtBTBZSd2-Td-9" edge="1">
                    <mxGeometry relative="1" as="geometry"/>
                </mxCell>
                <mxCell id="zeNmIrOmVtBTBZSd2-Td-14" style="edgeStyle=orthogonalEdgeStyle;rounded=0;orthogonalLoop=1;jettySize=auto;html=1;" parent="1" source="zeNmIrOmVtBTBZSd2-Td-94" target="zeNmIrOmVtBTBZSd2-Td-32" edge="1">
                    <mxGeometry relative="1" as="geometry">
                        <mxPoint x="563" y="-550" as="sourcePoint"/>
                    </mxGeometry>
                </mxCell>
                <mxCell id="zeNmIrOmVtBTBZSd2-Td-15" value="&lt;font style=&quot;font-size: 16px;&quot;&gt;commit -m &quot;backup-0&quot; &amp;amp;&amp;amp;&lt;br&gt;push backup&amp;nbsp;&quot;backup-0&quot;&lt;br&gt;&lt;/font&gt;" style="edgeLabel;html=1;align=center;verticalAlign=middle;resizable=0;points=[];" parent="zeNmIrOmVtBTBZSd2-Td-14" vertex="1" connectable="0">
                    <mxGeometry x="-0.0151" y="-2" relative="1" as="geometry">
                        <mxPoint as="offset"/>
                    </mxGeometry>
                </mxCell>
                <mxCell id="zeNmIrOmVtBTBZSd2-Td-16" style="edgeStyle=orthogonalEdgeStyle;rounded=0;orthogonalLoop=1;jettySize=auto;html=1;entryX=0.5;entryY=0;entryDx=0;entryDy=0;fontSize=16;" parent="1" source="zeNmIrOmVtBTBZSd2-Td-18" target="zeNmIrOmVtBTBZSd2-Td-94" edge="1">
                    <mxGeometry relative="1" as="geometry">
                        <Array as="points">
                            <mxPoint x="688" y="-820"/>
                            <mxPoint x="688" y="-820"/>
                        </Array>
                    </mxGeometry>
                </mxCell>
                <mxCell id="zeNmIrOmVtBTBZSd2-Td-17" value="add ." style="edgeLabel;html=1;align=center;verticalAlign=middle;resizable=0;points=[];fontSize=16;" parent="zeNmIrOmVtBTBZSd2-Td-16" vertex="1" connectable="0">
                    <mxGeometry x="0.1306" y="2" relative="1" as="geometry">
                        <mxPoint x="-2" y="-8" as="offset"/>
                    </mxGeometry>
                </mxCell>
                <mxCell id="zeNmIrOmVtBTBZSd2-Td-18" value="Create Backup Branch" style="swimlane;whiteSpace=wrap;html=1;fontSize=16;startSize=20;" parent="1" vertex="1">
                    <mxGeometry x="548" y="-1070" width="280" height="230" as="geometry"/>
                </mxCell>
                <mxCell id="zeNmIrOmVtBTBZSd2-Td-19" value="backup-0" style="text;html=1;align=center;verticalAlign=middle;resizable=0;points=[];autosize=1;strokeColor=none;fillColor=none;fontSize=16;" parent="zeNmIrOmVtBTBZSd2-Td-18" vertex="1">
                    <mxGeometry x="115" y="140" width="90" height="30" as="geometry"/>
                </mxCell>
                <mxCell id="zeNmIrOmVtBTBZSd2-Td-20" value="A" style="rounded=0;whiteSpace=wrap;html=1;" parent="zeNmIrOmVtBTBZSd2-Td-18" vertex="1">
                    <mxGeometry x="20" y="80" width="40" height="40" as="geometry"/>
                </mxCell>
                <mxCell id="zeNmIrOmVtBTBZSd2-Td-21" value="B" style="rounded=0;whiteSpace=wrap;html=1;" parent="zeNmIrOmVtBTBZSd2-Td-18" vertex="1">
                    <mxGeometry x="80" y="80" width="40" height="40" as="geometry"/>
                </mxCell>
                <mxCell id="zeNmIrOmVtBTBZSd2-Td-22" style="edgeStyle=orthogonalEdgeStyle;rounded=0;orthogonalLoop=1;jettySize=auto;html=1;strokeWidth=1;fontSize=16;endArrow=classic;endFill=1;" parent="zeNmIrOmVtBTBZSd2-Td-18" source="zeNmIrOmVtBTBZSd2-Td-20" target="zeNmIrOmVtBTBZSd2-Td-21" edge="1">
                    <mxGeometry relative="1" as="geometry"/>
                </mxCell>
                <mxCell id="zeNmIrOmVtBTBZSd2-Td-23" value="C" style="rounded=0;whiteSpace=wrap;html=1;" parent="zeNmIrOmVtBTBZSd2-Td-18" vertex="1">
                    <mxGeometry x="140" y="80" width="40" height="40" as="geometry"/>
                </mxCell>
                <mxCell id="zeNmIrOmVtBTBZSd2-Td-24" style="edgeStyle=orthogonalEdgeStyle;rounded=0;orthogonalLoop=1;jettySize=auto;html=1;strokeWidth=1;fontSize=16;endArrow=classic;endFill=1;" parent="zeNmIrOmVtBTBZSd2-Td-18" source="zeNmIrOmVtBTBZSd2-Td-21" target="zeNmIrOmVtBTBZSd2-Td-23" edge="1">
                    <mxGeometry relative="1" as="geometry"/>
                </mxCell>
                <mxCell id="zeNmIrOmVtBTBZSd2-Td-25" value="issue" style="text;html=1;align=center;verticalAlign=middle;resizable=0;points=[];autosize=1;strokeColor=none;fillColor=none;fontSize=16;" parent="zeNmIrOmVtBTBZSd2-Td-18" vertex="1">
                    <mxGeometry x="130" y="30" width="60" height="30" as="geometry"/>
                </mxCell>
                <mxCell id="zeNmIrOmVtBTBZSd2-Td-26" style="edgeStyle=orthogonalEdgeStyle;rounded=0;orthogonalLoop=1;jettySize=auto;html=1;strokeWidth=1;fontSize=16;endArrow=classic;endFill=1;dashed=1;dashPattern=1 4;" parent="zeNmIrOmVtBTBZSd2-Td-18" source="zeNmIrOmVtBTBZSd2-Td-25" target="zeNmIrOmVtBTBZSd2-Td-23" edge="1">
                    <mxGeometry relative="1" as="geometry">
                        <Array as="points"/>
                    </mxGeometry>
                </mxCell>
                <mxCell id="zeNmIrOmVtBTBZSd2-Td-27" value="D" style="rounded=0;whiteSpace=wrap;html=1;fillColor=#a20025;fontColor=#ffffff;strokeColor=#6F0000;" parent="zeNmIrOmVtBTBZSd2-Td-18" vertex="1">
                    <mxGeometry x="222" y="80" width="40" height="40" as="geometry"/>
                </mxCell>
                <mxCell id="zeNmIrOmVtBTBZSd2-Td-28" style="edgeStyle=orthogonalEdgeStyle;rounded=0;orthogonalLoop=1;jettySize=auto;html=1;strokeWidth=1;fontSize=16;endArrow=classic;endFill=1;dashed=1;dashPattern=1 4;" parent="zeNmIrOmVtBTBZSd2-Td-18" source="zeNmIrOmVtBTBZSd2-Td-19" target="zeNmIrOmVtBTBZSd2-Td-23" edge="1">
                    <mxGeometry relative="1" as="geometry"/>
                </mxCell>
                <mxCell id="zeNmIrOmVtBTBZSd2-Td-29" style="edgeStyle=orthogonalEdgeStyle;rounded=0;orthogonalLoop=1;jettySize=auto;html=1;dashed=1;strokeWidth=1;fontSize=16;endArrow=classic;endFill=1;dashPattern=1 4;" parent="zeNmIrOmVtBTBZSd2-Td-18" source="zeNmIrOmVtBTBZSd2-Td-30" target="zeNmIrOmVtBTBZSd2-Td-19" edge="1">
                    <mxGeometry relative="1" as="geometry"/>
                </mxCell>
                <mxCell id="zeNmIrOmVtBTBZSd2-Td-30" value="HEAD" style="text;html=1;align=center;verticalAlign=middle;resizable=0;points=[];autosize=1;strokeColor=none;fillColor=none;fontSize=16;" parent="zeNmIrOmVtBTBZSd2-Td-18" vertex="1">
                    <mxGeometry x="125" y="190" width="70" height="30" as="geometry"/>
                </mxCell>
                <mxCell id="zeNmIrOmVtBTBZSd2-Td-31" value="switch issue" style="edgeStyle=orthogonalEdgeStyle;rounded=0;orthogonalLoop=1;jettySize=auto;html=1;fontSize=16;" parent="1" source="zeNmIrOmVtBTBZSd2-Td-32" target="zeNmIrOmVtBTBZSd2-Td-66" edge="1">
                    <mxGeometry relative="1" as="geometry">
                        <mxPoint x="278" y="-580" as="targetPoint"/>
                    </mxGeometry>
                </mxCell>
                <mxCell id="zeNmIrOmVtBTBZSd2-Td-32" value="Commit to Backup Branch" style="swimlane;whiteSpace=wrap;html=1;fontSize=16;startSize=20;" parent="1" vertex="1">
                    <mxGeometry x="23" y="-790" width="270" height="230" as="geometry"/>
                </mxCell>
                <mxCell id="zeNmIrOmVtBTBZSd2-Td-33" value="backup-0" style="text;html=1;align=center;verticalAlign=middle;resizable=0;points=[];autosize=1;strokeColor=none;fillColor=none;fontSize=16;" parent="zeNmIrOmVtBTBZSd2-Td-32" vertex="1">
                    <mxGeometry x="175" y="135" width="90" height="30" as="geometry"/>
                </mxCell>
                <mxCell id="zeNmIrOmVtBTBZSd2-Td-34" value="A" style="rounded=0;whiteSpace=wrap;html=1;" parent="zeNmIrOmVtBTBZSd2-Td-32" vertex="1">
                    <mxGeometry x="20" y="75" width="40" height="40" as="geometry"/>
                </mxCell>
                <mxCell id="zeNmIrOmVtBTBZSd2-Td-35" value="B" style="rounded=0;whiteSpace=wrap;html=1;" parent="zeNmIrOmVtBTBZSd2-Td-32" vertex="1">
                    <mxGeometry x="80" y="75" width="40" height="40" as="geometry"/>
                </mxCell>
                <mxCell id="zeNmIrOmVtBTBZSd2-Td-36" style="edgeStyle=orthogonalEdgeStyle;rounded=0;orthogonalLoop=1;jettySize=auto;html=1;strokeWidth=1;fontSize=16;endArrow=classic;endFill=1;" parent="zeNmIrOmVtBTBZSd2-Td-32" source="zeNmIrOmVtBTBZSd2-Td-34" target="zeNmIrOmVtBTBZSd2-Td-35" edge="1">
                    <mxGeometry relative="1" as="geometry"/>
                </mxCell>
                <mxCell id="zeNmIrOmVtBTBZSd2-Td-37" value="C" style="rounded=0;whiteSpace=wrap;html=1;" parent="zeNmIrOmVtBTBZSd2-Td-32" vertex="1">
                    <mxGeometry x="140" y="75" width="40" height="40" as="geometry"/>
                </mxCell>
                <mxCell id="zeNmIrOmVtBTBZSd2-Td-38" style="edgeStyle=orthogonalEdgeStyle;rounded=0;orthogonalLoop=1;jettySize=auto;html=1;strokeWidth=1;fontSize=16;endArrow=classic;endFill=1;" parent="zeNmIrOmVtBTBZSd2-Td-32" source="zeNmIrOmVtBTBZSd2-Td-35" target="zeNmIrOmVtBTBZSd2-Td-37" edge="1">
                    <mxGeometry relative="1" as="geometry"/>
                </mxCell>
                <mxCell id="zeNmIrOmVtBTBZSd2-Td-39" value="issue" style="text;html=1;align=center;verticalAlign=middle;resizable=0;points=[];autosize=1;strokeColor=none;fillColor=none;fontSize=16;" parent="zeNmIrOmVtBTBZSd2-Td-32" vertex="1">
                    <mxGeometry x="130" y="25" width="60" height="30" as="geometry"/>
                </mxCell>
                <mxCell id="zeNmIrOmVtBTBZSd2-Td-40" style="edgeStyle=orthogonalEdgeStyle;rounded=0;orthogonalLoop=1;jettySize=auto;html=1;strokeWidth=1;fontSize=16;endArrow=classic;endFill=1;dashed=1;" parent="zeNmIrOmVtBTBZSd2-Td-32" source="zeNmIrOmVtBTBZSd2-Td-39" target="zeNmIrOmVtBTBZSd2-Td-37" edge="1">
                    <mxGeometry relative="1" as="geometry">
                        <Array as="points"/>
                    </mxGeometry>
                </mxCell>
                <mxCell id="zeNmIrOmVtBTBZSd2-Td-41" value="D" style="rounded=0;whiteSpace=wrap;html=1;" parent="zeNmIrOmVtBTBZSd2-Td-32" vertex="1">
                    <mxGeometry x="200" y="75" width="40" height="40" as="geometry"/>
                </mxCell>
                <mxCell id="zeNmIrOmVtBTBZSd2-Td-42" style="edgeStyle=orthogonalEdgeStyle;rounded=0;orthogonalLoop=1;jettySize=auto;html=1;strokeWidth=1;fontSize=16;endArrow=classic;endFill=1;dashed=1;dashPattern=1 4;" parent="zeNmIrOmVtBTBZSd2-Td-32" target="zeNmIrOmVtBTBZSd2-Td-41" edge="1">
                    <mxGeometry relative="1" as="geometry">
                        <mxPoint x="219.9655172413793" y="134.9999999999999" as="sourcePoint"/>
                    </mxGeometry>
                </mxCell>
                <mxCell id="zeNmIrOmVtBTBZSd2-Td-43" style="edgeStyle=orthogonalEdgeStyle;rounded=0;orthogonalLoop=1;jettySize=auto;html=1;strokeWidth=1;fontSize=16;endArrow=classic;endFill=1;" parent="zeNmIrOmVtBTBZSd2-Td-32" source="zeNmIrOmVtBTBZSd2-Td-37" target="zeNmIrOmVtBTBZSd2-Td-41" edge="1">
                    <mxGeometry relative="1" as="geometry"/>
                </mxCell>
                <mxCell id="zeNmIrOmVtBTBZSd2-Td-44" value="HEAD" style="text;html=1;align=center;verticalAlign=middle;resizable=0;points=[];autosize=1;strokeColor=none;fillColor=none;fontSize=16;" parent="zeNmIrOmVtBTBZSd2-Td-32" vertex="1">
                    <mxGeometry x="185" y="190" width="70" height="30" as="geometry"/>
                </mxCell>
                <mxCell id="zeNmIrOmVtBTBZSd2-Td-45" style="edgeStyle=orthogonalEdgeStyle;rounded=0;orthogonalLoop=1;jettySize=auto;html=1;dashed=1;strokeWidth=1;fontSize=16;endArrow=classic;endFill=1;dashPattern=1 4;" parent="zeNmIrOmVtBTBZSd2-Td-32" source="zeNmIrOmVtBTBZSd2-Td-44" target="zeNmIrOmVtBTBZSd2-Td-33" edge="1">
                    <mxGeometry relative="1" as="geometry"/>
                </mxCell>
                <mxCell id="LUL2vJcHcE18bWRTxpdR-17" style="edgeStyle=orthogonalEdgeStyle;rounded=0;orthogonalLoop=1;jettySize=auto;html=1;dashed=1;dashPattern=1 4;" parent="zeNmIrOmVtBTBZSd2-Td-32" source="LUL2vJcHcE18bWRTxpdR-16" target="zeNmIrOmVtBTBZSd2-Td-41" edge="1">
                    <mxGeometry relative="1" as="geometry">
                        <Array as="points">
                            <mxPoint x="105" y="130"/>
                            <mxPoint x="220" y="130"/>
                        </Array>
                    </mxGeometry>
                </mxCell>
                <mxCell id="LUL2vJcHcE18bWRTxpdR-16" value="backup/backup-0" style="text;html=1;align=center;verticalAlign=middle;resizable=0;points=[];autosize=1;strokeColor=none;fillColor=none;fontSize=16;spacing=0;spacingRight=-6;" parent="zeNmIrOmVtBTBZSd2-Td-32" vertex="1">
                    <mxGeometry x="40" y="135" width="130" height="30" as="geometry"/>
                </mxCell>
                <mxCell id="zeNmIrOmVtBTBZSd2-Td-63" style="edgeStyle=orthogonalEdgeStyle;rounded=0;orthogonalLoop=1;jettySize=auto;html=1;fontSize=16;" parent="1" source="zeNmIrOmVtBTBZSd2-Td-66" target="zeNmIrOmVtBTBZSd2-Td-122" edge="1">
                    <mxGeometry relative="1" as="geometry">
                        <mxPoint x="548" y="-390" as="targetPoint"/>
                    </mxGeometry>
                </mxCell>
                <mxCell id="zeNmIrOmVtBTBZSd2-Td-64" value="restore --source D .&amp;nbsp;" style="edgeLabel;html=1;align=center;verticalAlign=middle;resizable=0;points=[];fontSize=16;" parent="zeNmIrOmVtBTBZSd2-Td-63" vertex="1" connectable="0">
                    <mxGeometry x="-0.0722" relative="1" as="geometry">
                        <mxPoint as="offset"/>
                    </mxGeometry>
                </mxCell>
                <mxCell id="zeNmIrOmVtBTBZSd2-Td-66" value="Switch to Issue" style="swimlane;whiteSpace=wrap;html=1;fontSize=16;startSize=20;" parent="1" vertex="1">
                    <mxGeometry x="23" y="-500" width="270" height="230" as="geometry"/>
                </mxCell>
                <mxCell id="zeNmIrOmVtBTBZSd2-Td-67" value="backup-0" style="text;html=1;align=center;verticalAlign=middle;resizable=0;points=[];autosize=1;strokeColor=none;fillColor=none;fontSize=16;spacing=-2;" parent="zeNmIrOmVtBTBZSd2-Td-66" vertex="1">
                    <mxGeometry x="180" y="190" width="80" height="20" as="geometry"/>
                </mxCell>
                <mxCell id="zeNmIrOmVtBTBZSd2-Td-68" value="A" style="rounded=0;whiteSpace=wrap;html=1;" parent="zeNmIrOmVtBTBZSd2-Td-66" vertex="1">
                    <mxGeometry x="20" y="125" width="40" height="40" as="geometry"/>
                </mxCell>
                <mxCell id="zeNmIrOmVtBTBZSd2-Td-69" value="B" style="rounded=0;whiteSpace=wrap;html=1;" parent="zeNmIrOmVtBTBZSd2-Td-66" vertex="1">
                    <mxGeometry x="80" y="125" width="40" height="40" as="geometry"/>
                </mxCell>
                <mxCell id="zeNmIrOmVtBTBZSd2-Td-70" style="edgeStyle=orthogonalEdgeStyle;rounded=0;orthogonalLoop=1;jettySize=auto;html=1;strokeWidth=1;fontSize=16;endArrow=classic;endFill=1;" parent="zeNmIrOmVtBTBZSd2-Td-66" source="zeNmIrOmVtBTBZSd2-Td-68" target="zeNmIrOmVtBTBZSd2-Td-69" edge="1">
                    <mxGeometry relative="1" as="geometry"/>
                </mxCell>
                <mxCell id="zeNmIrOmVtBTBZSd2-Td-71" value="C" style="rounded=0;whiteSpace=wrap;html=1;" parent="zeNmIrOmVtBTBZSd2-Td-66" vertex="1">
                    <mxGeometry x="140" y="125" width="40" height="40" as="geometry"/>
                </mxCell>
                <mxCell id="zeNmIrOmVtBTBZSd2-Td-72" style="edgeStyle=orthogonalEdgeStyle;rounded=0;orthogonalLoop=1;jettySize=auto;html=1;strokeWidth=1;fontSize=16;endArrow=classic;endFill=1;" parent="zeNmIrOmVtBTBZSd2-Td-66" source="zeNmIrOmVtBTBZSd2-Td-69" target="zeNmIrOmVtBTBZSd2-Td-71" edge="1">
                    <mxGeometry relative="1" as="geometry"/>
                </mxCell>
                <mxCell id="zeNmIrOmVtBTBZSd2-Td-73" value="issue" style="text;html=1;align=center;verticalAlign=middle;resizable=0;points=[];autosize=1;strokeColor=none;fillColor=none;fontSize=16;" parent="zeNmIrOmVtBTBZSd2-Td-66" vertex="1">
                    <mxGeometry x="130" y="80" width="60" height="30" as="geometry"/>
                </mxCell>
                <mxCell id="zeNmIrOmVtBTBZSd2-Td-74" style="edgeStyle=orthogonalEdgeStyle;rounded=0;orthogonalLoop=1;jettySize=auto;html=1;strokeWidth=1;fontSize=16;endArrow=classic;endFill=1;dashed=1;dashPattern=1 4;" parent="zeNmIrOmVtBTBZSd2-Td-66" source="zeNmIrOmVtBTBZSd2-Td-73" target="zeNmIrOmVtBTBZSd2-Td-71" edge="1">
                    <mxGeometry relative="1" as="geometry">
                        <Array as="points"/>
                    </mxGeometry>
                </mxCell>
                <mxCell id="zeNmIrOmVtBTBZSd2-Td-75" value="D" style="rounded=0;whiteSpace=wrap;html=1;" parent="zeNmIrOmVtBTBZSd2-Td-66" vertex="1">
                    <mxGeometry x="200" y="125" width="40" height="40" as="geometry"/>
                </mxCell>
                <mxCell id="zeNmIrOmVtBTBZSd2-Td-76" style="edgeStyle=orthogonalEdgeStyle;rounded=0;orthogonalLoop=1;jettySize=auto;html=1;strokeWidth=1;fontSize=16;endArrow=classic;endFill=1;dashed=1;dashPattern=1 4;" parent="zeNmIrOmVtBTBZSd2-Td-66" target="zeNmIrOmVtBTBZSd2-Td-75" edge="1">
                    <mxGeometry relative="1" as="geometry">
                        <mxPoint x="220" y="185" as="sourcePoint"/>
                    </mxGeometry>
                </mxCell>
                <mxCell id="zeNmIrOmVtBTBZSd2-Td-77" style="edgeStyle=orthogonalEdgeStyle;rounded=0;orthogonalLoop=1;jettySize=auto;html=1;strokeWidth=1;fontSize=16;endArrow=classic;endFill=1;" parent="zeNmIrOmVtBTBZSd2-Td-66" source="zeNmIrOmVtBTBZSd2-Td-71" target="zeNmIrOmVtBTBZSd2-Td-75" edge="1">
                    <mxGeometry relative="1" as="geometry"/>
                </mxCell>
                <mxCell id="zeNmIrOmVtBTBZSd2-Td-78" style="edgeStyle=orthogonalEdgeStyle;rounded=0;orthogonalLoop=1;jettySize=auto;html=1;fontSize=16;dashed=1;dashPattern=1 4;" parent="zeNmIrOmVtBTBZSd2-Td-66" source="zeNmIrOmVtBTBZSd2-Td-79" target="zeNmIrOmVtBTBZSd2-Td-73" edge="1">
                    <mxGeometry relative="1" as="geometry"/>
                </mxCell>
                <mxCell id="zeNmIrOmVtBTBZSd2-Td-79" value="HEAD" style="text;html=1;align=center;verticalAlign=middle;resizable=0;points=[];autosize=1;strokeColor=none;fillColor=none;fontSize=16;" parent="zeNmIrOmVtBTBZSd2-Td-66" vertex="1">
                    <mxGeometry x="125" y="30" width="70" height="30" as="geometry"/>
                </mxCell>
                <mxCell id="LUL2vJcHcE18bWRTxpdR-37" style="edgeStyle=orthogonalEdgeStyle;rounded=0;orthogonalLoop=1;jettySize=auto;html=1;dashed=1;dashPattern=1 4;" parent="zeNmIrOmVtBTBZSd2-Td-66" source="LUL2vJcHcE18bWRTxpdR-36" target="zeNmIrOmVtBTBZSd2-Td-75" edge="1">
                    <mxGeometry relative="1" as="geometry">
                        <Array as="points">
                            <mxPoint x="100" y="180"/>
                            <mxPoint x="220" y="180"/>
                        </Array>
                    </mxGeometry>
                </mxCell>
                <mxCell id="LUL2vJcHcE18bWRTxpdR-36" value="backup/backup-0" style="text;html=1;align=center;verticalAlign=middle;resizable=0;points=[];autosize=1;strokeColor=none;fillColor=none;fontSize=16;spacing=0;spacingRight=-6;" parent="zeNmIrOmVtBTBZSd2-Td-66" vertex="1">
                    <mxGeometry x="35" y="185" width="130" height="30" as="geometry"/>
                </mxCell>
                <mxCell id="zeNmIrOmVtBTBZSd2-Td-94" value="Create Backup Branch" style="swimlane;whiteSpace=wrap;html=1;fontSize=16;startSize=20;" parent="1" vertex="1">
                    <mxGeometry x="548" y="-790" width="280" height="230" as="geometry"/>
                </mxCell>
                <mxCell id="zeNmIrOmVtBTBZSd2-Td-95" value="backup-0" style="text;html=1;align=center;verticalAlign=middle;resizable=0;points=[];autosize=1;strokeColor=none;fillColor=none;fontSize=16;" parent="zeNmIrOmVtBTBZSd2-Td-94" vertex="1">
                    <mxGeometry x="115" y="140" width="90" height="30" as="geometry"/>
                </mxCell>
                <mxCell id="zeNmIrOmVtBTBZSd2-Td-96" value="A" style="rounded=0;whiteSpace=wrap;html=1;" parent="zeNmIrOmVtBTBZSd2-Td-94" vertex="1">
                    <mxGeometry x="20" y="80" width="40" height="40" as="geometry"/>
                </mxCell>
                <mxCell id="zeNmIrOmVtBTBZSd2-Td-97" value="B" style="rounded=0;whiteSpace=wrap;html=1;" parent="zeNmIrOmVtBTBZSd2-Td-94" vertex="1">
                    <mxGeometry x="80" y="80" width="40" height="40" as="geometry"/>
                </mxCell>
                <mxCell id="zeNmIrOmVtBTBZSd2-Td-98" style="edgeStyle=orthogonalEdgeStyle;rounded=0;orthogonalLoop=1;jettySize=auto;html=1;strokeWidth=1;fontSize=16;endArrow=classic;endFill=1;" parent="zeNmIrOmVtBTBZSd2-Td-94" source="zeNmIrOmVtBTBZSd2-Td-96" target="zeNmIrOmVtBTBZSd2-Td-97" edge="1">
                    <mxGeometry relative="1" as="geometry"/>
                </mxCell>
                <mxCell id="zeNmIrOmVtBTBZSd2-Td-99" value="C" style="rounded=0;whiteSpace=wrap;html=1;" parent="zeNmIrOmVtBTBZSd2-Td-94" vertex="1">
                    <mxGeometry x="140" y="80" width="40" height="40" as="geometry"/>
                </mxCell>
                <mxCell id="zeNmIrOmVtBTBZSd2-Td-100" style="edgeStyle=orthogonalEdgeStyle;rounded=0;orthogonalLoop=1;jettySize=auto;html=1;strokeWidth=1;fontSize=16;endArrow=classic;endFill=1;" parent="zeNmIrOmVtBTBZSd2-Td-94" source="zeNmIrOmVtBTBZSd2-Td-97" target="zeNmIrOmVtBTBZSd2-Td-99" edge="1">
                    <mxGeometry relative="1" as="geometry"/>
                </mxCell>
                <mxCell id="zeNmIrOmVtBTBZSd2-Td-101" value="issue" style="text;html=1;align=center;verticalAlign=middle;resizable=0;points=[];autosize=1;strokeColor=none;fillColor=none;fontSize=16;" parent="zeNmIrOmVtBTBZSd2-Td-94" vertex="1">
                    <mxGeometry x="130" y="30" width="60" height="30" as="geometry"/>
                </mxCell>
                <mxCell id="zeNmIrOmVtBTBZSd2-Td-102" style="edgeStyle=orthogonalEdgeStyle;rounded=0;orthogonalLoop=1;jettySize=auto;html=1;strokeWidth=1;fontSize=16;endArrow=classic;endFill=1;dashed=1;dashPattern=1 4;" parent="zeNmIrOmVtBTBZSd2-Td-94" source="zeNmIrOmVtBTBZSd2-Td-101" target="zeNmIrOmVtBTBZSd2-Td-99" edge="1">
                    <mxGeometry relative="1" as="geometry">
                        <Array as="points"/>
                    </mxGeometry>
                </mxCell>
                <mxCell id="zeNmIrOmVtBTBZSd2-Td-103" value="D" style="rounded=0;whiteSpace=wrap;html=1;fillColor=#008a00;fontColor=#ffffff;strokeColor=#005700;" parent="zeNmIrOmVtBTBZSd2-Td-94" vertex="1">
                    <mxGeometry x="225" y="80" width="40" height="40" as="geometry"/>
                </mxCell>
                <mxCell id="zeNmIrOmVtBTBZSd2-Td-104" style="edgeStyle=orthogonalEdgeStyle;rounded=0;orthogonalLoop=1;jettySize=auto;html=1;strokeWidth=1;fontSize=16;endArrow=classic;endFill=1;dashed=1;dashPattern=1 4;" parent="zeNmIrOmVtBTBZSd2-Td-94" source="zeNmIrOmVtBTBZSd2-Td-95" target="zeNmIrOmVtBTBZSd2-Td-99" edge="1">
                    <mxGeometry relative="1" as="geometry"/>
                </mxCell>
                <mxCell id="zeNmIrOmVtBTBZSd2-Td-105" style="edgeStyle=orthogonalEdgeStyle;rounded=0;orthogonalLoop=1;jettySize=auto;html=1;dashed=1;strokeWidth=1;fontSize=16;endArrow=classic;endFill=1;dashPattern=1 4;" parent="zeNmIrOmVtBTBZSd2-Td-94" source="zeNmIrOmVtBTBZSd2-Td-106" target="zeNmIrOmVtBTBZSd2-Td-95" edge="1">
                    <mxGeometry relative="1" as="geometry"/>
                </mxCell>
                <mxCell id="zeNmIrOmVtBTBZSd2-Td-106" value="HEAD" style="text;html=1;align=center;verticalAlign=middle;resizable=0;points=[];autosize=1;strokeColor=none;fillColor=none;fontSize=16;" parent="zeNmIrOmVtBTBZSd2-Td-94" vertex="1">
                    <mxGeometry x="125" y="190" width="70" height="30" as="geometry"/>
                </mxCell>
                <mxCell id="zeNmIrOmVtBTBZSd2-Td-122" value="Restore Working Tree Files from D" style="swimlane;whiteSpace=wrap;html=1;fontSize=16;startSize=20;" parent="1" vertex="1">
                    <mxGeometry x="550" y="-500" width="335" height="230" as="geometry"/>
                </mxCell>
                <mxCell id="zeNmIrOmVtBTBZSd2-Td-123" value="backup-0" style="text;html=1;align=center;verticalAlign=middle;resizable=0;points=[];autosize=1;strokeColor=none;fillColor=none;fontSize=16;" parent="zeNmIrOmVtBTBZSd2-Td-122" vertex="1">
                    <mxGeometry x="175" y="185" width="90" height="30" as="geometry"/>
                </mxCell>
                <mxCell id="zeNmIrOmVtBTBZSd2-Td-124" value="A" style="rounded=0;whiteSpace=wrap;html=1;" parent="zeNmIrOmVtBTBZSd2-Td-122" vertex="1">
                    <mxGeometry x="20" y="125" width="40" height="40" as="geometry"/>
                </mxCell>
                <mxCell id="zeNmIrOmVtBTBZSd2-Td-125" value="B" style="rounded=0;whiteSpace=wrap;html=1;" parent="zeNmIrOmVtBTBZSd2-Td-122" vertex="1">
                    <mxGeometry x="80" y="125" width="40" height="40" as="geometry"/>
                </mxCell>
                <mxCell id="zeNmIrOmVtBTBZSd2-Td-126" style="edgeStyle=orthogonalEdgeStyle;rounded=0;orthogonalLoop=1;jettySize=auto;html=1;strokeWidth=1;fontSize=16;endArrow=classic;endFill=1;" parent="zeNmIrOmVtBTBZSd2-Td-122" source="zeNmIrOmVtBTBZSd2-Td-124" target="zeNmIrOmVtBTBZSd2-Td-125" edge="1">
                    <mxGeometry relative="1" as="geometry"/>
                </mxCell>
                <mxCell id="zeNmIrOmVtBTBZSd2-Td-127" value="C" style="rounded=0;whiteSpace=wrap;html=1;" parent="zeNmIrOmVtBTBZSd2-Td-122" vertex="1">
                    <mxGeometry x="140" y="125" width="40" height="40" as="geometry"/>
                </mxCell>
                <mxCell id="zeNmIrOmVtBTBZSd2-Td-128" style="edgeStyle=orthogonalEdgeStyle;rounded=0;orthogonalLoop=1;jettySize=auto;html=1;strokeWidth=1;fontSize=16;endArrow=classic;endFill=1;" parent="zeNmIrOmVtBTBZSd2-Td-122" source="zeNmIrOmVtBTBZSd2-Td-125" target="zeNmIrOmVtBTBZSd2-Td-127" edge="1">
                    <mxGeometry relative="1" as="geometry"/>
                </mxCell>
                <mxCell id="zeNmIrOmVtBTBZSd2-Td-129" value="issue" style="text;html=1;align=center;verticalAlign=middle;resizable=0;points=[];autosize=1;strokeColor=none;fillColor=none;fontSize=16;" parent="zeNmIrOmVtBTBZSd2-Td-122" vertex="1">
                    <mxGeometry x="130" y="80" width="60" height="30" as="geometry"/>
                </mxCell>
                <mxCell id="zeNmIrOmVtBTBZSd2-Td-130" style="edgeStyle=orthogonalEdgeStyle;rounded=0;orthogonalLoop=1;jettySize=auto;html=1;strokeWidth=1;fontSize=16;endArrow=classic;endFill=1;dashed=1;dashPattern=1 4;" parent="zeNmIrOmVtBTBZSd2-Td-122" source="zeNmIrOmVtBTBZSd2-Td-129" target="zeNmIrOmVtBTBZSd2-Td-127" edge="1">
                    <mxGeometry relative="1" as="geometry">
                        <Array as="points"/>
                    </mxGeometry>
                </mxCell>
                <mxCell id="zeNmIrOmVtBTBZSd2-Td-131" value="D" style="rounded=0;whiteSpace=wrap;html=1;" parent="zeNmIrOmVtBTBZSd2-Td-122" vertex="1">
                    <mxGeometry x="200" y="125" width="40" height="40" as="geometry"/>
                </mxCell>
                <mxCell id="zeNmIrOmVtBTBZSd2-Td-132" style="edgeStyle=orthogonalEdgeStyle;rounded=0;orthogonalLoop=1;jettySize=auto;html=1;strokeWidth=1;fontSize=16;endArrow=classic;endFill=1;dashed=1;dashPattern=1 4;" parent="zeNmIrOmVtBTBZSd2-Td-122" target="zeNmIrOmVtBTBZSd2-Td-131" edge="1">
                    <mxGeometry relative="1" as="geometry">
                        <mxPoint x="219.9655172413793" y="184.9999999999999" as="sourcePoint"/>
                    </mxGeometry>
                </mxCell>
                <mxCell id="zeNmIrOmVtBTBZSd2-Td-133" style="edgeStyle=orthogonalEdgeStyle;rounded=0;orthogonalLoop=1;jettySize=auto;html=1;strokeWidth=1;fontSize=16;endArrow=classic;endFill=1;" parent="zeNmIrOmVtBTBZSd2-Td-122" source="zeNmIrOmVtBTBZSd2-Td-127" target="zeNmIrOmVtBTBZSd2-Td-131" edge="1">
                    <mxGeometry relative="1" as="geometry"/>
                </mxCell>
                <mxCell id="zeNmIrOmVtBTBZSd2-Td-134" style="edgeStyle=orthogonalEdgeStyle;rounded=0;orthogonalLoop=1;jettySize=auto;html=1;fontSize=16;dashed=1;dashPattern=1 4;" parent="zeNmIrOmVtBTBZSd2-Td-122" source="zeNmIrOmVtBTBZSd2-Td-135" target="zeNmIrOmVtBTBZSd2-Td-129" edge="1">
                    <mxGeometry relative="1" as="geometry"/>
                </mxCell>
                <mxCell id="zeNmIrOmVtBTBZSd2-Td-135" value="HEAD" style="text;html=1;align=center;verticalAlign=middle;resizable=0;points=[];autosize=1;strokeColor=none;fillColor=none;fontSize=16;" parent="zeNmIrOmVtBTBZSd2-Td-122" vertex="1">
                    <mxGeometry x="125" y="30" width="70" height="30" as="geometry"/>
                </mxCell>
                <mxCell id="zeNmIrOmVtBTBZSd2-Td-136" value="D" style="rounded=0;whiteSpace=wrap;html=1;fillColor=#a20025;fontColor=#ffffff;strokeColor=#6F0000;" parent="zeNmIrOmVtBTBZSd2-Td-122" vertex="1">
                    <mxGeometry x="280" y="125" width="40" height="40" as="geometry"/>
                </mxCell>
                <mxCell id="LUL2vJcHcE18bWRTxpdR-39" style="edgeStyle=orthogonalEdgeStyle;rounded=0;orthogonalLoop=1;jettySize=auto;html=1;dashed=1;dashPattern=1 4;" parent="zeNmIrOmVtBTBZSd2-Td-122" source="LUL2vJcHcE18bWRTxpdR-38" target="zeNmIrOmVtBTBZSd2-Td-131" edge="1">
                    <mxGeometry relative="1" as="geometry">
                        <Array as="points">
                            <mxPoint x="100" y="180"/>
                            <mxPoint x="220" y="180"/>
                        </Array>
                    </mxGeometry>
                </mxCell>
                <mxCell id="LUL2vJcHcE18bWRTxpdR-38" value="backup/backup-0" style="text;html=1;align=center;verticalAlign=middle;resizable=0;points=[];autosize=1;strokeColor=none;fillColor=none;fontSize=16;spacing=0;spacingRight=-6;" parent="zeNmIrOmVtBTBZSd2-Td-122" vertex="1">
                    <mxGeometry x="35" y="185" width="130" height="30" as="geometry"/>
                </mxCell>
            </root>
        </mxGraphModel>
    </diagram>
</mxfile>